<svg xmlns="http://www.w3.org/2000/svg" width="596.25" height="120" viewBox="0 0 596.25 120">
  <g id="logo___name" data-name="logo_&amp;_name" transform="translate(0 -24)">
    <g id="name" transform="translate(210 39)">
      <path id="s" d="M24.628-51.29q-10,0-15.125-5.687T4.378-73.29v-5h13v6q0,8.5,7.125,8.5a6.7,6.7,0,0,0,5.312-2.063q1.812-2.062,1.812-6.687a18.534,18.534,0,0,0-2.5-9.688q-2.5-4.187-9.25-10.062Q11.378-99.79,8-105.853A27.657,27.657,0,0,1,4.628-119.54q0-10.375,5.25-16.062t15.25-5.688q9.875,0,14.937,5.688t5.063,16.312v3.625h-13v-4.5q0-4.5-1.75-6.563a6.346,6.346,0,0,0-5.125-2.062q-6.875,0-6.875,8.375a16.519,16.519,0,0,0,2.563,8.875q2.562,4.125,9.312,10,8.625,7.5,11.875,13.625a30.24,30.24,0,0,1,3.25,14.375q0,10.75-5.312,16.5T24.628-51.29Z" transform="translate(-4.378 141.29)" fill="#202020"/>
      <path id="a" d="M17.045-139.3H36.2l14.657,90H36.717L34.145-67.172v.257H18.074L15.5-49.3H2.388ZM32.474-79.129l-6.3-44.486h-.257L19.745-79.129Z" transform="translate(61.112 139.3)" fill="#202020"/>
      <path id="n" d="M8.159-139.3H25.9L39.659-85.429h.257V-139.3h12.6v90H37.988L21.016-115h-.257v65.7H8.159Z" transform="translate(126.312 139.3)" fill="#202020"/>
      <path id="t" d="M17.174-126.443H2.388V-139.3H46.1v12.857H31.317V-49.3H17.174Z" transform="translate(198.94 139.3)" fill="#202020"/>
      <path id="h" d="M8.159-139.3H22.3v36.643H37.473V-139.3H51.616v90H37.473V-89.8H22.3v40.5H8.159Z" transform="translate(259.384 139.3)" fill="#202020"/>
      <path id="i" d="M8.159-139.3H22.3v90H8.159Z" transform="translate(325.341 139.3)" fill="#202020"/>
      <rect id="dot" width="14.987" height="14.987" transform="translate(371.263 75.027)" fill="#202020"/>
    </g>
    <g id="logo" transform="translate(0 24)">
      <path id="circle" d="M60.1,120.149c-.637,0-1.286-.01-1.929-.03V107.586h.066l3.213,12.547-.117.007C60.92,120.144,60.505,120.149,60.1,120.149Zm-5.313-.23h0A60.107,60.107,0,0,1,.27,66.354H2.791V62.376H21.5A38.668,38.668,0,0,0,54.789,98.353v21.566Zm11.909-.125V98.155A38.668,38.668,0,0,0,98.211,66.684l21.964-3.57A60.093,60.093,0,0,1,66.7,119.793Zm-3.383-4.283h-.07L58.892,98.7c.368.011.763.019,1.21.019,1.07,0,2.151-.044,3.213-.132v16.927Zm35.354-52.6v-.005c.066-.919.1-1.851.1-2.772,0-.784-.024-1.579-.072-2.361l3.084.448v4.236h.07l-3.176.454Zm6.336-.895V58.665l11.743,1.624v.066L105.01,62.017ZM21.468,58.572H2.791V54.6H.2a59.127,59.127,0,0,1,17.365-36.9A59.942,59.942,0,0,1,58.134.149a4.164,4.164,0,0,0-1.071.833A5.9,5.9,0,0,0,55.7,5.129a7.173,7.173,0,0,0,.874,3.534,14.447,14.447,0,0,0,3.074,3.5,12,12,0,0,1,2.393,2.6,4.793,4.793,0,0,1,.646,2.5A2.6,2.6,0,0,1,62.221,19a1.741,1.741,0,0,1-1.373.532c-1.224,0-1.844-.739-1.844-2.2V15.781H55.636v1.292a6.1,6.1,0,0,0,1.33,4.213,4,4,0,0,0,.375.364A38.553,38.553,0,0,0,21.468,58.568ZM120.2,57.84H120.2L98.324,54.283a38.637,38.637,0,0,0-34.019-32.5,4.21,4.21,0,0,0,.568-.512,6.065,6.065,0,0,0,1.377-4.259,7.822,7.822,0,0,0-.843-3.712,13.271,13.271,0,0,0-3.074-3.519,12.661,12.661,0,0,1-2.409-2.585A4.286,4.286,0,0,1,59.263,4.9c0-1.434.6-2.161,1.779-2.161a1.65,1.65,0,0,1,1.326.532,2.6,2.6,0,0,1,.452,1.694V6.128h3.364V5.195A6.155,6.155,0,0,0,64.874.981,3.99,3.99,0,0,0,63.988.24,60.084,60.084,0,0,1,120.2,57.835Z" transform="translate(-0.204 -0.149)" fill="#202020"/>
      <g id="middle" transform="translate(45.953 49.07)">
        <path id="h-2" data-name="h" d="M8.159-139.3h3.367v8.725h3.612V-139.3h3.367v21.429H15.139v-9.643H11.526v9.643H8.159Z" transform="translate(-8.159 139.3)" fill="#202020"/>
        <path id="i-2" data-name="i" d="M8.159-139.3h3.367v21.429H8.159Z" transform="translate(7.13 139.3)" fill="#202020"/>
        <rect id="dot-2" data-name="dot" width="4.286" height="4.286" transform="translate(23.598 17.143)" fill="#202020"/>
      </g>
    </g>
  </g>
</svg>
